<?xml version="1.0" encoding="UTF-8"?>
<svg width="29px" height="28px" viewBox="0 0 29 28" version="1.1" xmlns="http://www.w3.org/2000/svg" xmlns:xlink="http://www.w3.org/1999/xlink">
    <title>Group 6 Copy 7</title>
    <g id="Page-1" stroke="none" stroke-width="1" fill="none" fill-rule="evenodd">
        <g id="Artboard" transform="translate(-84, -838)">
            <g id="Group-6-Copy-7" transform="translate(84, 838)">
                <path d="M11.6436376,0 L0,3.35360955 L0,13.1579632 C0.281781889,16.7909509 1.43221784,19.9034393 3.45130787,22.4954283 C5.47039789,25.0874173 8.20117448,26.9222745 11.6436376,28 C14.9673736,26.9352309 17.6623552,25.1003736 19.7285823,22.4954283 C21.7948094,19.8904829 22.9357763,16.7779946 23.1514831,13.1579632 L23.1514831,3.35360955 L11.6436376,0 Z" id="Combined-Shape-Copy-2" fill="#307FC3"></path>
                <g id="Group-5-Copy-4" transform="translate(1.4778, 0.4912)" fill="#E72917">
                    <polygon id="Rectangle" transform="translate(5.9836, 13.387) rotate(45) translate(-5.9836, -13.387)" points="0.197742412 11.2217396 11.7926441 11.1602841 11.7693655 15.5522923 0.174463786 15.6137478"></polygon>
                    <polygon id="Rectangle-Copy-3" transform="translate(17.1074, 10.5328) scale(-1, 1) rotate(45) translate(-17.1074, -10.5328)" points="5.04231588 8.39788944 29.1969749 8.27565577 29.1724035 12.6676692 5.01774449 12.7899028"></polygon>
                </g>
            </g>
        </g>
    </g>
</svg>