<?xml version="1.0" encoding="UTF-8"?>
<svg width="298px" height="150px" viewBox="0 0 298 150" version="1.1" xmlns="http://www.w3.org/2000/svg" xmlns:xlink="http://www.w3.org/1999/xlink">
    <title>Стиз Copy 4</title>
    <g id="Page-1" stroke="none" stroke-width="1" fill="none" fill-rule="evenodd">
        <g id="Artboard-Copy-2" transform="translate(-847, -5918)" fill-rule="nonzero">
            <g id="Group-9" transform="translate(0, 4749)">
                <g id="Стиз-Copy-4" transform="translate(847.5815, 1169)">
                    <path d="M80.418457,70 L80.418457,52.6 L61.170091,52.6 C53.4032065,52.6 48.2534244,51.5 45.7207446,49.3 C43.1880649,47.1 41.921725,42.3333333 41.921725,35 C41.921725,27.6666667 43.1880649,22.9 45.7207446,20.7 C48.2534244,18.5 53.4032065,17.4 61.170091,17.4 L61.170091,17.4 L79.4053851,17.4 L79.4053851,0 L49.418457,0 C38.0045137,0 29.9843612,2.75 25.3579995,8.25 C20.7316379,13.75 18.418457,22.6666667 18.418457,35 C18.418457,47.3333333 20.7316379,56.25 25.3579995,61.75 C29.9843612,67.25 38.0045137,70 49.418457,70 L49.418457,70 L80.418457,70 Z M124.350889,70 L124.350889,31 L144.418457,31 L144.418457,17 L84.418457,17 L84.418457,31 L104.486025,31 L104.486025,70 L124.350889,70 Z M160.783432,71 C163.151136,71 165.028386,70.7124846 166.415184,70.1374539 C167.801981,69.5624231 169.27334,68.2939729 170.829259,66.3321033 L170.829259,66.3321033 L189.906182,42.4852399 C190.853263,41.402829 191.462101,40.8616236 191.732696,40.8616236 C192.273885,40.8616236 192.54448,41.402829 192.54448,42.4852399 L192.54448,42.4852399 L191.52975,70.3911439 L211.418457,70.3911439 L211.418457,26.7564576 C211.418457,25.6740467 211.333896,24.6931119 211.164775,23.8136531 C210.995653,22.9341943 210.589761,21.8179582 209.947099,20.4649446 C209.304436,19.1119311 208.120585,18.0295203 206.395544,17.2177122 C204.670503,16.4059041 202.488833,16 199.850536,16 C197.956373,16 196.332805,16.25369 194.979832,16.7610701 C193.626859,17.2684502 192.764338,17.6912669 192.39227,18.0295203 C192.020203,18.3677737 191.394453,19.0442804 190.51502,20.0590406 L190.51502,20.0590406 L171.032205,44.5147601 C170.220421,45.5295203 169.611583,46.0369004 169.205691,46.0369004 C168.596853,46.0369004 168.292434,45.5295203 168.292434,44.5147601 L168.292434,44.5147601 L169.307164,16.6088561 L149.418457,16.6088561 L149.418457,60.8523985 C149.418457,67.6174662 153.206782,71 160.783432,71 Z M254.215067,70 C260.181169,70 264.706593,69.0166667 267.791338,67.05 C270.876084,65.0833333 272.418457,61.1333333 272.418457,55.2 C272.418457,47.8 268.689643,43.7333333 261.232016,43 L261.232016,43 L261.232016,42.6 C265.096423,42.0666667 267.859135,40.9333333 269.520152,39.2 C271.181169,37.4666667 272.011677,34.6333333 272.011677,30.7 C272.011677,28.1666667 271.689643,26.0333333 271.045576,24.3 C270.401508,22.5666667 269.587949,21.2166667 268.604898,20.25 C267.621847,19.2833333 266.265915,18.55 264.537101,18.05 C262.808288,17.55 261.198118,17.25 259.706593,17.15 C258.215067,17.05 256.248966,17 253.808288,17 L219.232016,17 L219.232016,30.4 L246.587949,30.4 C247.943881,30.4 248.926932,30.4333333 249.537101,30.5 C250.147271,30.5666667 250.75744,30.85 251.36761,31.35 C251.977779,31.85 252.282864,32.6 252.282864,33.6 C252.282864,34.6 251.977779,35.35 251.36761,35.85 C250.75744,36.35 250.147271,36.6333333 249.537101,36.7 C248.926932,36.7666667 247.943881,36.8 246.587949,36.8 L219.842186,36.8 L219.842186,49 L246.486254,49 C248.452355,49 249.909982,49.1833333 250.859135,49.55 C251.808288,49.9166667 252.282864,50.8666667 252.282864,52.4 C252.282864,53.4666667 251.977779,54.2666667 251.36761,54.8 C250.75744,55.3333333 250.130321,55.6333333 249.486254,55.7 C248.842186,55.7666667 247.842186,55.8 246.486254,55.8 L218.418457,55.8 L218.418457,70 L254.215067,70 Z" id="Стиз-Copy-3" fill="#E62B18"></path>
                    <g id="Комфорт-и-уют-вашего-Copy-2" transform="translate(0, 95.7598)" fill="#000000">
                        <polygon id="Path" points="0 21.2402344 0 0.234375 3.29589844 0.234375 3.29589844 9.38964844 7.6171875 0.234375 10.9130859 0.234375 6.328125 9.59472656 10.9130859 21.2402344 7.52929688 21.2402344 4.32128906 12.8759766 3.29589844 14.7949219 3.29589844 21.2402344"></polygon>
                        <path d="M12.2489062,16.2011719 L12.2489062,5.2734375 C12.2489062,3.59375 12.6834766,2.29492188 13.5526172,1.37695312 C14.4217578,0.458984375 15.6619922,0 17.2733203,0 C18.8846484,0 20.1224414,0.458984375 20.9866992,1.37695312 C21.850957,2.29492188 22.2830859,3.59375 22.2830859,5.2734375 L22.2830859,16.2011719 C22.2830859,17.8808594 21.850957,19.1796875 20.9866992,20.0976562 C20.1224414,21.015625 18.8846484,21.4746094 17.2733203,21.4746094 C15.6619922,21.4746094 14.4217578,21.015625 13.5526172,20.0976562 C12.6834766,19.1796875 12.2489062,17.8808594 12.2489062,16.2011719 Z M15.5594531,16.40625 C15.5594531,17.7929688 16.1307422,18.4863281 17.2733203,18.4863281 C18.4061328,18.4863281 18.9725391,17.7929688 18.9725391,16.40625 L18.9725391,5.06835938 C18.9725391,3.69140625 18.4061328,3.00292969 17.2733203,3.00292969 C16.1307422,3.00292969 15.5594531,3.69140625 15.5594531,5.06835938 L15.5594531,16.40625 Z" id="Shape"></path>
                        <polygon id="Path" points="24.4978125 21.2402344 24.4978125 0.234375 29.0827734 0.234375 31.5144141 15.1464844 33.7702734 0.234375 38.3552344 0.234375 38.3552344 21.2402344 35.2351172 21.2402344 35.2351172 6.18164062 32.9499609 21.2402344 29.8298437 21.2402344 27.3689062 6.38671875 27.3689062 21.2402344"></polygon>
                        <path d="M40.5846094,13.6816406 L40.5846094,7.95410156 C40.5846094,6.26464844 40.997207,4.97558594 41.8224023,4.08691406 C42.6475977,3.19824219 43.875625,2.75390625 45.5064844,2.75390625 L46.7369531,2.75390625 L46.7369531,0.234375 L49.9889062,0.234375 L49.9889062,2.75390625 L51.2047266,2.75390625 C52.8355859,2.75390625 54.0636133,3.19824219 54.8888086,4.08691406 C55.7140039,4.97558594 56.1266016,6.26464844 56.1266016,7.95410156 L56.1266016,13.6816406 C56.1266016,15.3710938 55.7140039,16.6577148 54.8888086,17.5415039 C54.0636133,18.425293 52.8355859,18.8671875 51.2047266,18.8671875 L49.9889062,18.8671875 L49.9889062,21.2402344 L46.7369531,21.2402344 L46.7369531,18.8671875 L45.5064844,18.8671875 C43.875625,18.8671875 42.6475977,18.425293 41.8224023,17.5415039 C40.997207,16.6577148 40.5846094,15.3710938 40.5846094,13.6816406 Z M43.8658594,13.8867188 C43.8658594,15.2929688 44.4127344,15.9960938 45.5064844,15.9960938 L46.7369531,15.9960938 L46.7369531,5.66894531 L45.5064844,5.66894531 C44.9596094,5.66894531 44.5494531,5.83251953 44.2760156,6.15966797 C44.0025781,6.48681641 43.8658594,7.01171875 43.8658594,7.734375 L43.8658594,13.8867188 Z M49.9889062,15.9960938 L51.2047266,15.9960938 C52.3082422,15.9960938 52.86,15.2929688 52.86,13.8867188 L52.86,7.734375 C52.86,6.35742188 52.3082422,5.66894531 51.2047266,5.66894531 L49.9889062,5.66894531 L49.9889062,15.9960938 Z" id="Shape"></path>
                        <path d="M58.1801953,16.2011719 L58.1801953,5.2734375 C58.1801953,3.59375 58.6147656,2.29492188 59.4839062,1.37695312 C60.3530469,0.458984375 61.5932812,0 63.2046094,0 C64.8159375,0 66.0537305,0.458984375 66.9179883,1.37695312 C67.7822461,2.29492188 68.214375,3.59375 68.214375,5.2734375 L68.214375,16.2011719 C68.214375,17.8808594 67.7822461,19.1796875 66.9179883,20.0976562 C66.0537305,21.015625 64.8159375,21.4746094 63.2046094,21.4746094 C61.5932812,21.4746094 60.3530469,21.015625 59.4839062,20.0976562 C58.6147656,19.1796875 58.1801953,17.8808594 58.1801953,16.2011719 Z M61.4907422,16.40625 C61.4907422,17.7929688 62.0620312,18.4863281 63.2046094,18.4863281 C64.3374219,18.4863281 64.9038281,17.7929688 64.9038281,16.40625 L64.9038281,5.06835938 C64.9038281,3.69140625 64.3374219,3.00292969 63.2046094,3.00292969 C62.0620312,3.00292969 61.4907422,3.69140625 61.4907422,5.06835938 L61.4907422,16.40625 Z" id="Shape"></path>
                        <path d="M70.4583984,21.2402344 L70.4583984,0.234375 L75.3216797,0.234375 C76.9525391,0.234375 78.1805664,0.678710938 79.0057617,1.56738281 C79.830957,2.45605469 80.2435547,3.74511719 80.2435547,5.43457031 L80.2435547,8.15917969 C80.2435547,9.84863281 79.830957,11.1352539 79.0057617,12.019043 C78.1805664,12.902832 76.9525391,13.3447266 75.3216797,13.3447266 L73.7542969,13.3447266 L73.7542969,21.2402344 L70.4583984,21.2402344 Z M73.7542969,10.3564453 L75.3216797,10.3564453 C75.8685547,10.3564453 76.2738281,10.2050781 76.5375,9.90234375 C76.8011719,9.59960938 76.9330078,9.08691406 76.9330078,8.36425781 L76.9330078,5.21484375 C76.9330078,4.4921875 76.8011719,3.98193359 76.5375,3.68408203 C76.2738281,3.38623047 75.8685547,3.23730469 75.3216797,3.23730469 L73.7542969,3.23730469 L73.7542969,10.3564453 Z" id="Shape"></path>
                        <polygon id="Path" points="80.9201953 3.23730469 80.9201953 0.234375 91.1301562 0.234375 91.1301562 3.23730469 87.673125 3.23730469 87.673125 21.2402344 84.3772266 21.2402344 84.3772266 3.23730469"></polygon>
                        <polygon id="Path" points="97.4492578 21.2402344 97.4492578 0.234375 100.393594 0.234375 100.393594 13.5351562 101.594766 8.90625 104.290078 0.234375 107.922891 0.234375 107.922891 21.2402344 104.949258 21.2402344 104.949258 6.4453125 103.601602 11.6162109 100.833047 21.2402344"></polygon>
                        <path d="M114.16875,0.234375 L117.45,0.234375 L119.237109,7.41210938 L120.2625,12.3339844 L121.038867,7.44140625 L122.547656,0.234375 L125.990039,0.234375 L122.459766,15.8935547 C122.29375,16.6943359 122.108203,17.3754883 121.903125,17.9370117 C121.698047,18.4985352 121.429492,19.0161133 121.097461,19.4897461 C120.76543,19.9633789 120.365039,20.3320312 119.896289,20.5957031 C119.427539,20.859375 118.853809,21.0522461 118.175098,21.1743164 C117.496387,21.2963867 116.70293,21.328125 115.794727,21.2695312 L115.794727,18.3251953 C116.693164,18.3837891 117.371875,18.2958984 117.830859,18.0615234 C118.289844,17.8271484 118.582812,17.3486328 118.709766,16.6259766 L118.739062,16.4355469 L114.16875,0.234375 Z" id="Path"></path>
                        <path d="M127.486992,21.2402344 L127.486992,0.234375 L130.782891,0.234375 L130.782891,9.24316406 L133.243828,9.24316406 L133.243828,5.2734375 C133.243828,3.59375 133.675957,2.29492188 134.540215,1.37695312 C135.404473,0.458984375 136.642266,0 138.253594,0 C139.864922,0 141.102715,0.458984375 141.966973,1.37695312 C142.83123,2.29492188 143.263359,3.59375 143.263359,5.2734375 L143.263359,16.2011719 C143.263359,17.8808594 142.83123,19.1796875 141.966973,20.0976562 C141.102715,21.015625 139.864922,21.4746094 138.253594,21.4746094 C136.642266,21.4746094 135.404473,21.015625 134.540215,20.0976562 C133.675957,19.1796875 133.243828,17.8808594 133.243828,16.2011719 L133.243828,12.2460938 L130.782891,12.2460938 L130.782891,21.2402344 L127.486992,21.2402344 Z M136.539727,16.40625 C136.539727,17.7929688 137.111016,18.4863281 138.253594,18.4863281 C139.396172,18.4863281 139.967461,17.7929688 139.967461,16.40625 L139.967461,5.06835938 C139.967461,3.69140625 139.396172,3.00292969 138.253594,3.00292969 C137.111016,3.00292969 136.539727,3.69140625 136.539727,5.06835938 L136.539727,16.40625 Z" id="Shape"></path>
                        <polygon id="Path" points="144.59918 3.23730469 144.59918 0.234375 154.809141 0.234375 154.809141 3.23730469 151.352109 3.23730469 151.352109 21.2402344 148.056211 21.2402344 148.056211 3.23730469"></polygon>
                        <path d="M161.128242,21.2402344 L161.128242,0.234375 L166.108711,0.234375 C167.798164,0.234375 169.035957,0.629882813 169.82209,1.42089844 C170.608223,2.21191406 171.001289,3.42773438 171.001289,5.06835938 L171.001289,5.81542969 C171.001289,7.96386719 170.288398,9.375 168.862617,10.0488281 C170.503242,10.6835938 171.323555,12.1826172 171.323555,14.5458984 L171.323555,16.2597656 C171.323555,17.8808594 170.89875,19.1162109 170.049141,19.9658203 C169.199531,20.8154297 167.954414,21.2402344 166.313789,21.2402344 L161.128242,21.2402344 Z M164.424141,18.2373047 L166.313789,18.2373047 C166.889961,18.2373047 167.319648,18.0810547 167.602852,17.7685547 C167.886055,17.4560547 168.027656,16.9238281 168.027656,16.171875 L168.027656,14.3408203 C168.027656,13.3837891 167.864082,12.7197266 167.536934,12.3486328 C167.209785,11.9775391 166.665352,11.7919922 165.903633,11.7919922 L164.424141,11.7919922 L164.424141,18.2373047 Z M164.424141,8.7890625 L165.713203,8.7890625 C166.3675,8.7890625 166.860664,8.62060547 167.192695,8.28369141 C167.524727,7.94677734 167.690742,7.37792969 167.690742,6.57714844 L167.690742,5.40527344 C167.690742,4.65332031 167.558906,4.10400391 167.295234,3.75732422 C167.031563,3.41064453 166.606758,3.23730469 166.02082,3.23730469 L164.424141,3.23730469 L164.424141,8.7890625 Z" id="Shape"></path>
                        <path d="M172.556836,21.2402344 L175.911328,0.234375 L180.745312,0.234375 L184.099805,21.2402344 L180.774609,21.2402344 L180.20332,17.4316406 L176.145703,17.4316406 L175.574414,21.2402344 L172.556836,21.2402344 Z M176.570508,14.5751953 L179.749219,14.5751953 L178.167187,3.95507812 L176.570508,14.5751953 Z" id="Shape"></path>
                        <polygon id="Path" points="185.743242 21.2402344 185.743242 0.234375 189.039141 0.234375 189.039141 18.2373047 191.895586 18.2373047 191.895586 0.234375 195.191484 0.234375 195.191484 18.2373047 198.04793 18.2373047 198.04793 0.234375 201.343828 0.234375 201.343828 21.2402344"></polygon>
                        <polygon id="Path" points="203.851523 21.2402344 203.851523 0.234375 212.845664 0.234375 212.845664 3.23730469 207.147422 3.23730469 207.147422 9.09667969 211.673789 9.09667969 211.673789 12.0849609 207.147422 12.0849609 207.147422 18.2373047 212.845664 18.2373047 212.845664 21.2402344"></polygon>
                        <polygon id="Path" points="215.031094 21.2402344 215.031094 0.234375 223.732266 0.234375 223.732266 3.23730469 218.326992 3.23730469 218.326992 21.2402344"></polygon>
                        <path d="M225.785859,16.2011719 L225.785859,5.2734375 C225.785859,3.59375 226.22043,2.29492188 227.08957,1.37695312 C227.958711,0.458984375 229.198945,0 230.810273,0 C232.421602,0 233.659395,0.458984375 234.523652,1.37695312 C235.38791,2.29492188 235.820039,3.59375 235.820039,5.2734375 L235.820039,16.2011719 C235.820039,17.8808594 235.38791,19.1796875 234.523652,20.0976562 C233.659395,21.015625 232.421602,21.4746094 230.810273,21.4746094 C229.198945,21.4746094 227.958711,21.015625 227.08957,20.0976562 C226.22043,19.1796875 225.785859,17.8808594 225.785859,16.2011719 Z M229.096406,16.40625 C229.096406,17.7929688 229.667695,18.4863281 230.810273,18.4863281 C231.943086,18.4863281 232.509492,17.7929688 232.509492,16.40625 L232.509492,5.06835938 C232.509492,3.69140625 231.943086,3.00292969 230.810273,3.00292969 C229.667695,3.00292969 229.096406,3.69140625 229.096406,5.06835938 L229.096406,16.40625 Z" id="Shape"></path>
                        <path d="M242.109844,24.0673828 L242.109844,18.2958984 L243.398906,18.2958984 C243.672344,17.9541016 243.867656,17.5756836 243.984844,17.1606445 C244.102031,16.7456055 244.175273,16.2158203 244.20457,15.5712891 L244.951641,0.234375 L254.194805,0.234375 L254.194805,18.2958984 L255.630352,18.2958984 L255.630352,24.0673828 L252.36375,24.0673828 L252.36375,21.2402344 L245.317852,21.2402344 L245.317852,24.0673828 L242.109844,24.0673828 Z M246.519023,18.2958984 L250.840312,18.2958984 L250.840312,3.23730469 L248.042461,3.23730469 L247.441875,15.5126953 C247.402812,16.2841797 247.310039,16.8725586 247.163555,17.277832 C247.01707,17.6831055 246.802227,18.0224609 246.519023,18.2958984 Z" id="Shape"></path>
                        <path d="M257.303086,16.2011719 L257.303086,5.2734375 C257.303086,3.59375 257.737656,2.29492188 258.606797,1.37695312 C259.475937,0.458984375 260.716172,0 262.3275,0 C263.938828,0 265.176621,0.458984375 266.040879,1.37695312 C266.905137,2.29492188 267.337266,3.59375 267.337266,5.2734375 L267.337266,16.2011719 C267.337266,17.8808594 266.905137,19.1796875 266.040879,20.0976562 C265.176621,21.015625 263.938828,21.4746094 262.3275,21.4746094 C260.716172,21.4746094 259.475937,21.015625 258.606797,20.0976562 C257.737656,19.1796875 257.303086,17.8808594 257.303086,16.2011719 Z M260.613633,16.40625 C260.613633,17.7929688 261.184922,18.4863281 262.3275,18.4863281 C263.460312,18.4863281 264.026719,17.7929688 264.026719,16.40625 L264.026719,5.06835938 C264.026719,3.69140625 263.460312,3.00292969 262.3275,3.00292969 C261.184922,3.00292969 260.613633,3.69140625 260.613633,5.06835938 L260.613633,16.40625 Z" id="Shape"></path>
                        <polygon id="Path" points="269.551992 21.2402344 269.551992 0.234375 274.136953 0.234375 276.568594 15.1464844 278.824453 0.234375 283.409414 0.234375 283.409414 21.2402344 280.289297 21.2402344 280.289297 6.18164062 278.004141 21.2402344 274.884023 21.2402344 272.423086 6.38671875 272.423086 21.2402344"></polygon>
                        <path d="M285.052852,21.2402344 L288.407344,0.234375 L293.241328,0.234375 L296.59582,21.2402344 L293.270625,21.2402344 L292.699336,17.4316406 L288.641719,17.4316406 L288.07043,21.2402344 L285.052852,21.2402344 Z M289.066523,14.5751953 L292.245234,14.5751953 L290.663203,3.95507812 L289.066523,14.5751953 Z" id="Shape"></path>
                        <path d="M58.9007812,51.2402344 L58.9007812,30.234375 L63.88125,30.234375 C65.5707031,30.234375 66.8084961,30.6298828 67.5946289,31.4208984 C68.3807617,32.2119141 68.7738281,33.4277344 68.7738281,35.0683594 L68.7738281,35.8154297 C68.7738281,37.9638672 68.0609375,39.375 66.6351562,40.0488281 C68.2757812,40.6835938 69.0960937,42.1826172 69.0960937,44.5458984 L69.0960937,46.2597656 C69.0960937,47.8808594 68.6712891,49.1162109 67.8216797,49.9658203 C66.9720703,50.8154297 65.7269531,51.2402344 64.0863281,51.2402344 L58.9007812,51.2402344 Z M62.1966797,48.2373047 L64.0863281,48.2373047 C64.6625,48.2373047 65.0921875,48.0810547 65.3753906,47.7685547 C65.6585937,47.4560547 65.8001953,46.9238281 65.8001953,46.171875 L65.8001953,44.3408203 C65.8001953,43.3837891 65.6366211,42.7197266 65.3094727,42.3486328 C64.9823242,41.9775391 64.4378906,41.7919922 63.6761719,41.7919922 L62.1966797,41.7919922 L62.1966797,48.2373047 Z M62.1966797,38.7890625 L63.4857422,38.7890625 C64.1400391,38.7890625 64.6332031,38.6206055 64.9652344,38.2836914 C65.2972656,37.9467773 65.4632812,37.3779297 65.4632812,36.5771484 L65.4632812,35.4052734 C65.4632812,34.6533203 65.3314453,34.1040039 65.0677734,33.7573242 C64.8041016,33.4106445 64.3792969,33.2373047 63.7933594,33.2373047 L62.1966797,33.2373047 L62.1966797,38.7890625 Z" id="Shape"></path>
                        <path d="M75.6788672,46.2011719 L75.6788672,35.2734375 C75.6788672,33.59375 76.1134375,32.2949219 76.9825781,31.3769531 C77.8517187,30.4589844 79.0919531,30 80.7032812,30 C82.3146094,30 83.5524023,30.4589844 84.4166602,31.3769531 C85.280918,32.2949219 85.7130469,33.59375 85.7130469,35.2734375 L85.7130469,46.2011719 C85.7130469,47.8808594 85.280918,49.1796875 84.4166602,50.0976562 C83.5524023,51.015625 82.3146094,51.4746094 80.7032812,51.4746094 C79.0919531,51.4746094 77.8517187,51.015625 76.9825781,50.0976562 C76.1134375,49.1796875 75.6788672,47.8808594 75.6788672,46.2011719 Z M78.9894141,46.40625 C78.9894141,47.7929688 79.5607031,48.4863281 80.7032812,48.4863281 C81.8360937,48.4863281 82.4025,47.7929688 82.4025,46.40625 L82.4025,35.0683594 C82.4025,33.6914062 81.8360937,33.0029297 80.7032812,33.0029297 C79.5607031,33.0029297 78.9894141,33.6914062 78.9894141,35.0683594 L78.9894141,46.40625 Z" id="Shape"></path>
                        <path d="M87.2392969,54.0673828 L87.2392969,48.2958984 L88.5283594,48.2958984 C88.8017969,47.9541016 88.9971094,47.5756836 89.1142969,47.1606445 C89.2314844,46.7456055 89.3047266,46.2158203 89.3340234,45.5712891 L90.0810938,30.234375 L99.3242578,30.234375 L99.3242578,48.2958984 L100.759805,48.2958984 L100.759805,54.0673828 L97.4932031,54.0673828 L97.4932031,51.2402344 L90.4473047,51.2402344 L90.4473047,54.0673828 L87.2392969,54.0673828 Z M91.6484766,48.2958984 L95.9697656,48.2958984 L95.9697656,33.2373047 L93.1719141,33.2373047 L92.5713281,45.5126953 C92.5322656,46.2841797 92.4394922,46.8725586 92.2930078,47.277832 C92.1465234,47.6831055 91.9316797,48.0224609 91.6484766,48.2958984 Z" id="Shape"></path>
                        <polygon id="Path" points="102.710859 51.2402344 102.710859 30.234375 106.006758 30.234375 106.006758 39.2431641 109.756758 39.2431641 109.756758 30.234375 113.125898 30.234375 113.125898 51.2402344 109.756758 51.2402344 109.756758 42.2460938 106.006758 42.2460938 106.006758 51.2402344"></polygon>
                        <path d="M115.355273,46.2011719 L115.355273,35.2734375 C115.355273,33.59375 115.789844,32.2949219 116.658984,31.3769531 C117.528125,30.4589844 118.768359,30 120.379688,30 C121.991016,30 123.228809,30.4589844 124.093066,31.3769531 C124.957324,32.2949219 125.389453,33.59375 125.389453,35.2734375 L125.389453,46.2011719 C125.389453,47.8808594 124.957324,49.1796875 124.093066,50.0976562 C123.228809,51.015625 121.991016,51.4746094 120.379688,51.4746094 C118.768359,51.4746094 117.528125,51.015625 116.658984,50.0976562 C115.789844,49.1796875 115.355273,47.8808594 115.355273,46.2011719 Z M118.66582,46.40625 C118.66582,47.7929688 119.237109,48.4863281 120.379688,48.4863281 C121.5125,48.4863281 122.078906,47.7929688 122.078906,46.40625 L122.078906,35.0683594 C122.078906,33.6914062 121.5125,33.0029297 120.379688,33.0029297 C119.237109,33.0029297 118.66582,33.6914062 118.66582,35.0683594 L118.66582,46.40625 Z" id="Shape"></path>
                        <polygon id="Path" points="127.60418 51.2402344 127.60418 30.234375 132.189141 30.234375 134.620781 45.1464844 136.876641 30.234375 141.461602 30.234375 141.461602 51.2402344 138.341484 51.2402344 138.341484 36.1816406 136.056328 51.2402344 132.936211 51.2402344 130.475273 36.3867188 130.475273 51.2402344"></polygon>
                        <path d="M148.732852,51.2402344 L148.732852,30.234375 L153.596133,30.234375 C155.226992,30.234375 156.45502,30.6787109 157.280215,31.5673828 C158.10541,32.4560547 158.518008,33.7451172 158.518008,35.4345703 L158.518008,38.1591797 C158.518008,39.8486328 158.10541,41.1352539 157.280215,42.019043 C156.45502,42.902832 155.226992,43.3447266 153.596133,43.3447266 L152.02875,43.3447266 L152.02875,51.2402344 L148.732852,51.2402344 Z M152.02875,40.3564453 L153.596133,40.3564453 C154.143008,40.3564453 154.548281,40.2050781 154.811953,39.9023438 C155.075625,39.5996094 155.207461,39.0869141 155.207461,38.3642578 L155.207461,35.2148438 C155.207461,34.4921875 155.075625,33.9819336 154.811953,33.684082 C154.548281,33.3862305 154.143008,33.2373047 153.596133,33.2373047 L152.02875,33.2373047 L152.02875,40.3564453 Z" id="Shape"></path>
                        <polygon id="Path" points="160.161445 51.2402344 160.161445 30.234375 169.155586 30.234375 169.155586 33.2373047 163.457344 33.2373047 163.457344 39.0966797 167.983711 39.0966797 167.983711 42.0849609 163.457344 42.0849609 163.457344 48.2373047 169.155586 48.2373047 169.155586 51.2402344"></polygon>
                        <polygon id="Path" points="171.311719 51.2402344 171.311719 30.234375 174.607617 30.234375 174.607617 48.2373047 177.464062 48.2373047 177.464062 30.234375 180.759961 30.234375 180.759961 48.2373047 183.616406 48.2373047 183.616406 30.234375 186.912305 30.234375 186.912305 51.2402344"></polygon>
                        <polygon id="Path" points="189.42 51.2402344 189.42 30.234375 198.414141 30.234375 198.414141 33.2373047 192.715898 33.2373047 192.715898 39.0966797 197.242266 39.0966797 197.242266 42.0849609 192.715898 42.0849609 192.715898 48.2373047 198.414141 48.2373047 198.414141 51.2402344"></polygon>
                        <polygon id="Path" points="200.570273 51.2402344 200.570273 30.234375 203.866172 30.234375 203.866172 39.2431641 207.616172 39.2431641 207.616172 30.234375 210.985312 30.234375 210.985312 51.2402344 207.616172 51.2402344 207.616172 42.2460938 203.866172 42.2460938 203.866172 51.2402344"></polygon>
                        <polygon id="Path" points="213.493008 51.2402344 213.493008 30.234375 216.437344 30.234375 216.437344 43.5351562 217.638516 38.90625 220.333828 30.234375 223.966641 30.234375 223.966641 51.2402344 220.993008 51.2402344 220.993008 36.4453125 219.645352 41.6162109 216.876797 51.2402344"></polygon>
                        <polygon id="Path" points="226.415742 51.2402344 226.415742 30.234375 229.360078 30.234375 229.360078 43.5351562 230.56125 38.90625 233.256562 30.234375 236.889375 30.234375 236.889375 51.2402344 233.915742 51.2402344 233.915742 36.4453125 232.568086 41.6162109 229.799531 51.2402344"></polygon>
                    </g>
                </g>
            </g>
        </g>
    </g>
</svg>