<?xml version="1.0" encoding="UTF-8"?>
<svg width="283px" height="73px" viewBox="0 0 283 73" version="1.1" xmlns="http://www.w3.org/2000/svg" xmlns:xlink="http://www.w3.org/1999/xlink">
    <title>Group 5</title>
    <g id="Page-1" stroke="none" stroke-width="1" fill="none" fill-rule="evenodd">
        <g id="Artboard" transform="translate(-268, -65)" fill="#E62B18">
            <g id="Group-5" transform="translate(268, 65)">
                <path d="M57,0 L57,17.168746 L37.1901977,17.168746 C28.3536417,17.168746 21.1901977,24.33219 21.1901977,33.168746 L21.1901977,38.4552409 C21.1901977,47.2917969 28.3536417,54.4552409 37.1901977,54.4552409 L57,54.4552409 L57,54.4552409 L57,73 L31,73 C13.8791728,73 0,59.1208272 0,42 L0,31 C-3.55271368e-15,13.8791728 13.8791728,3.55271368e-15 31,0 L57,0 L57,0 Z" id="Path-2-Copy"></path>
                <polygon id="Path-4-Copy" points="64 0 64 16.9795354 88.0503665 16.9795354 88.0503665 73 109.05817 73 109.05817 16.9795354 133 16.9795354 133 0"></polygon>
                <path d="M140,0 L160.264135,0 L160.264135,43.277756 C160.264135,43.8300407 160.71185,44.277756 161.264135,44.277756 C161.617033,44.277756 161.943804,44.0917504 162.123979,43.7883126 L182.893348,8.80998022 C186.136494,3.34809972 192.018367,7.10542736e-15 198.370543,7.10542736e-15 L199.562261,0 C205.87915,-1.77635684e-15 211,5.12085012 211,11.4377389 L211,71 L211,71 L190.482704,71 L190.482704,26.555718 C190.482704,26.0034332 190.034988,25.555718 189.482704,25.555718 C189.122493,25.555718 188.790118,25.7494449 188.612588,26.0628695 L168.866451,60.9243229 C165.339444,67.1511902 158.736077,71 151.579705,71 C145.184411,71 140,65.8155893 140,59.4202947 L140,0 L140,0 Z" id="Path-5-Copy"></path>
                <path d="M224,0 L266.12689,0 C274.646474,-1.77635684e-15 281.552962,6.90648797 281.552962,15.4260726 L281.552962,21.6146606 C281.552962,27.0759192 277.916204,31.8689412 272.656647,33.3394533 L272.656647,33.3394533 L272.656647,33.3394533 L272.74714,33.3645911 C278.806554,35.0478226 283,40.564946 283,46.8538068 L283,53.6063554 C283,63.2126 275.2126,71 265.606355,71 L224,71 L224,71 L224,53.5923463 L256.258319,53.5923463 C259.697604,53.5923463 262.485695,50.8042552 262.485695,47.3649705 C262.485695,43.9256857 259.697604,41.1375946 256.258319,41.1375946 L224,41.1375946 L224,41.1375946 L224,26.7075659 L256.4604,26.7075659 C259.788079,26.7075659 262.485695,24.0099493 262.485695,20.6822707 C262.485695,17.354592 259.788079,14.6569754 256.4604,14.6569754 L224,14.6569754 L224,14.6569754 L224,0 Z" id="Path-6-Copy"></path>
            </g>
        </g>
    </g>
</svg>