<?xml version="1.0" encoding="UTF-8"?>
<svg width="32px" height="69px" viewBox="0 0 32 69" version="1.1" xmlns="http://www.w3.org/2000/svg" xmlns:xlink="http://www.w3.org/1999/xlink">
    <title>Combined Shape</title>
    <g id="Page-1" stroke="none" stroke-width="1" fill="none" fill-rule="evenodd">
        <g id="Artboard" transform="translate(-913, -1893)" fill="#7A8EAC">
            <path d="M929.49572,1893 C933.985718,1893 937.625581,1896.63986 937.625581,1901.12986 L937.625581,1933.57636 C942.54186,1936.63258 945,1940.8906 945,1946.35041 C945,1954.54012 939.937148,1962 929.498166,1962 C919.059183,1962 913.757153,1954.54012 913.757153,1946.35041 C913.757153,1940.8906 916.293389,1936.63258 921.36586,1933.57636 L921.365882,1930.99373 C921.254858,1931.01291 921.140689,1931.02291 921.024185,1931.02291 L914.992934,1931.02291 C913.892267,1931.02291 913,1930.13064 913,1929.02998 C913,1927.92931 913.892267,1927.03704 914.992934,1927.03704 L921.024185,1927.03704 C921.140689,1927.03704 921.254858,1927.04704 921.365882,1927.06622 L921.365882,1923.02199 C921.254858,1923.04118 921.140689,1923.05117 921.024185,1923.05117 L914.992934,1923.05117 C913.892267,1923.05117 913,1922.15891 913,1921.05824 C913,1919.95757 913.892267,1919.0653 914.992934,1919.0653 L921.024185,1919.0653 C921.140689,1919.0653 921.254858,1919.0753 921.365882,1919.09448 L921.365882,1915.05026 C921.254858,1915.06944 921.140689,1915.07944 921.024185,1915.07944 L914.992934,1915.07944 C913.892267,1915.07944 913,1914.18717 913,1913.0865 C913,1911.98583 913.892267,1911.09357 914.992934,1911.09357 L921.024185,1911.09357 C921.140689,1911.09357 921.254858,1911.10356 921.365882,1911.12275 L921.365882,1907.07852 C921.254858,1907.0977 921.140689,1907.1077 921.024185,1907.1077 L914.992934,1907.1077 C913.892267,1907.1077 913,1906.21543 913,1905.11476 C913,1904.0141 913.892267,1903.12183 914.992934,1903.12183 L921.024185,1903.12183 C921.140689,1903.12183 921.254858,1903.13183 921.365882,1903.15101 L921.36586,1901.12986 C921.36586,1896.63986 925.005722,1893 929.49572,1893 Z M929.155295,1898.20469 C926.92522,1898.20469 925.117388,1900.01252 925.117388,1902.2426 L925.117388,1937.09416 C921.078585,1939.59409 919.059183,1942.8086 919.059183,1946.7377 C919.059183,1952.63136 924.322935,1956.77244 929.579604,1956.77244 C934.836272,1956.77244 939.937148,1952.63136 939.937148,1946.7377 C939.937148,1942.8086 937.689166,1939.59409 933.193201,1937.09416 L933.193201,1902.2426 C933.193201,1900.01252 931.385369,1898.20469 929.155295,1898.20469 Z M930,1902 C930.552285,1902 931,1902.44772 931,1903 L931,1920 C931,1920.55228 930.552285,1921 930,1921 C929.447715,1921 929,1920.55228 929,1920 L929,1903 C929,1902.44772 929.447715,1902 930,1902 Z" id="Combined-Shape"></path>
        </g>
    </g>
</svg>