<?xml version="1.0" encoding="UTF-8"?>
<svg width="80px" height="67px" viewBox="0 0 80 67" version="1.1" xmlns="http://www.w3.org/2000/svg" xmlns:xlink="http://www.w3.org/1999/xlink">
    <title>Combined Shape</title>
    <g id="Page-1" stroke="none" stroke-width="1" fill="none" fill-rule="evenodd">
        <g id="Artboard" transform="translate(-583, -1894)" fill="#7A8EAC">
            <path d="M637.529626,1930.18855 L637.533471,1930.2013 C637.533471,1930.28797 637.451091,1930.5533 637.308753,1930.98203 L637.225302,1931.232 C636.631122,1933.00526 635.298025,1936.90254 634.304201,1942.19025 C633.426323,1946.86106 633.504691,1953.13098 634.539305,1961 L631.3066,1961 C630.800665,1953.67591 630.800665,1948.11401 631.3066,1944.3143 C632.065503,1938.61474 637.533471,1929.78371 637.533471,1930.2013 Z M615.396121,1937.56801 C620.806067,1927.26644 620.428227,1910.64802 621.38123,1914.4315 C622.334233,1918.21497 621.806271,1933.63217 617.568987,1941.20997 C614.744131,1946.26184 613.666793,1952.85851 614.336973,1961 L610.244286,1961 C610.072213,1952.24638 611.789491,1944.43572 615.396121,1937.56801 Z M625.600094,1934.47494 C631.010039,1924.17337 630.553224,1906.09684 631.506227,1909.88031 C632.45923,1913.66379 632.010243,1930.5391 627.772959,1938.1169 C624.948104,1943.16877 623.787799,1950.79647 624.292046,1961 L620.199328,1961 C620.193208,1950.18434 621.993464,1941.34265 625.600094,1934.47494 Z M617.79302,1894.87832 C620.613424,1896.03788 622.599251,1897.30016 623.750499,1898.66515 C627.068703,1896.14059 630.658908,1894.87832 634.521115,1894.87832 C640.314426,1894.87832 643.201756,1897.78237 644.583484,1900.7938 C645.504636,1902.80143 645.703725,1905.75952 645.180752,1909.66807 C647.005864,1909.7162 648.630352,1910.2477 650.054215,1911.26255 C651.478079,1912.2774 652.583354,1913.61809 653.37004,1915.28462 L663,1915.28462 L663,1922.0185 L654.526123,1922.0185 C654.297869,1925.17158 652.956895,1927.41223 650.503202,1928.74042 C646.822662,1930.73272 639.763899,1927.78084 639.763899,1927.78084 C639.763899,1927.78084 639.945656,1927.78733 640.262332,1927.78843 L640.524405,1927.78805 C642.764001,1927.77425 649.256235,1927.47136 650.503202,1924.46702 C652.015481,1920.82344 651.661818,1915.94941 648.690677,1913.8833 C646.709916,1912.50589 644.080389,1912.05419 640.802095,1912.5282 C642.63611,1907.1245 642.517071,1903.35584 640.444978,1901.2222 C637.336838,1898.02175 633.602419,1897.58829 630.286595,1898.66515 C628.076045,1899.38305 626.04248,1900.81143 624.185901,1902.95028 C621.480621,1900.19287 618.97965,1898.5097 616.682987,1897.90079 C613.237992,1896.98743 606.265343,1896.99938 604.825592,1903.80524 C603.865758,1908.34248 605.916284,1913.26649 610.977171,1918.57728 C606.186904,1916.59817 602.420404,1916.91221 599.677671,1919.51939 C595.56357,1923.43017 595.121721,1927.78084 596.351715,1932.73375 C597.581708,1937.68666 600.565053,1938.38203 604.825592,1938.38203 C609.086131,1938.38203 610.730573,1935.01854 608.335747,1931.98365 C605.940921,1928.94876 598.895743,1935.33403 599.324928,1933.78302 C599.754114,1932.232 602.497538,1927.78084 607.491652,1927.78084 C612.485766,1927.78084 613.969955,1932.1545 613.562413,1934.98934 C613.154872,1937.82417 610.347899,1942.52322 603.79062,1942.52322 C597.233341,1942.52322 592.867578,1936.93656 592.295638,1931.98365 C591.914344,1928.68171 592.256342,1925.35999 593.32163,1922.0185 L583,1922.0185 L583,1915.60862 L599.324928,1915.60862 C600.786246,1914.4584 601.896049,1913.8833 602.654338,1913.8833 C603.791771,1913.8833 598.341302,1908.13889 601.583447,1900.7938 C604.825592,1893.44871 613.562413,1893.13897 617.79302,1894.87832 Z" id="Combined-Shape"></path>
        </g>
    </g>
</svg>