<?xml version="1.0" encoding="UTF-8"?>
<svg width="68px" height="56px" viewBox="0 0 68 56" version="1.1" xmlns="http://www.w3.org/2000/svg" xmlns:xlink="http://www.w3.org/1999/xlink">
    <title>Combined Shape</title>
    <g id="Page-1" stroke="none" stroke-width="1" fill="none" fill-rule="evenodd">
        <g id="Artboard" transform="translate(-1195, -1897)" fill="#7A8EAC">
            <path d="M1246.49402,1897 L1263,1905.34251 L1263,1953 L1246.49402,1944.43573 L1238.24833,1951.35962 L1228.51376,1944.43573 L1220.74652,1951.35962 L1211.74229,1944.43573 C1200.58076,1949.05166 1195,1951.35962 1195,1951.35962 L1195,1905.34251 L1211.74229,1897 L1220.74652,1903.25476 L1229,1897 L1238.24833,1903.25476 L1246.49402,1897 Z M1249.67534,1901 L1249,1942.96926 L1261,1949 L1261,1906.81828 L1249.67534,1901 Z M1231,1901 L1231,1943.5328 L1238,1949 L1238,1905.22548 L1231,1901 Z M1213,1901 L1213,1943.19963 L1220,1948 L1220,1905.13969 L1213,1901 Z" id="Combined-Shape"></path>
        </g>
    </g>
</svg>