<?xml version="1.0" encoding="UTF-8"?>
<svg width="36px" height="56px" viewBox="0 0 36 56" version="1.1" xmlns="http://www.w3.org/2000/svg" xmlns:xlink="http://www.w3.org/1999/xlink">
    <title>Combined Shape</title>
    <g id="Page-1" stroke="none" stroke-width="1" fill="none" fill-rule="evenodd">
        <g id="Artboard" transform="translate(-605, -2147)" fill="#7A8EAC">
            <path d="M641,2147 L641,2151 L639.666992,2151 C638.516128,2157.80487 637.135106,2162.69956 635.523926,2165.68408 C633.912746,2168.6686 630.863592,2171.98029 626.376465,2175.61914 C630.86864,2180.33235 633.917794,2184.16064 635.523926,2187.104 C637.036078,2189.87514 638.348693,2193.84026 639.461772,2198.99935 L641,2199 L641,2203 L605,2203 L605,2199 L607.038228,2198.99935 C608.151307,2193.84026 609.463922,2189.87514 610.976074,2187.104 C612.582206,2184.16064 615.63136,2180.33235 620.123535,2175.61914 C615.636408,2171.98029 612.587254,2168.6686 610.976074,2165.68408 C609.364894,2162.69956 607.983872,2157.80487 606.833008,2151 L605,2151 L605,2147 L641,2147 Z M637.271973,2151 L609.228027,2151 C610.139425,2157.06495 611.346944,2161.49204 612.850586,2164.28125 C614.354228,2167.07046 617.570699,2170.84976 622.5,2175.61914 C617.714635,2180.69326 614.498164,2184.74209 612.850586,2187.76562 C611.309289,2190.59412 610.153108,2194.33827 609.382042,2198.99808 L612.893395,2198.99954 C613.445931,2197.37653 614.270421,2196.0764 615.366864,2195.09912 C616.700695,2193.91026 619.325931,2192.24359 623.242573,2190.09912 C626.869406,2192.31656 629.32658,2193.98323 630.614094,2195.09912 C631.679407,2196.02243 632.538448,2197.32281 633.191216,2199.00027 L637.118123,2198.99907 C636.347057,2194.33881 635.190821,2190.59433 633.649414,2187.76562 C632.001836,2184.74209 628.785365,2180.69326 624,2175.61914 C628.929301,2170.84976 632.145772,2167.07046 633.649414,2164.28125 C635.153056,2161.49204 636.360575,2157.06495 637.271973,2151 Z M629.222656,2162.98291 C628.810073,2165.00059 628.215998,2166.51711 627.44043,2167.53247 C626.664862,2168.54784 625.184718,2170.06436 623,2172.08203 C620.640708,2170.13075 619.059328,2168.61423 618.255859,2167.53247 C617.452391,2166.45071 616.891356,2164.93419 616.572754,2162.98291 L629.222656,2162.98291 Z" id="Combined-Shape"></path>
        </g>
    </g>
</svg>