<?xml version="1.0" encoding="UTF-8"?>
<svg width="67px" height="67px" viewBox="0 0 67 67" version="1.1" xmlns="http://www.w3.org/2000/svg" xmlns:xlink="http://www.w3.org/1999/xlink">
    <title>Combined Shape</title>
    <g id="Page-1" stroke="none" stroke-width="1" fill="none" fill-rule="evenodd">
        <g id="Artboard" transform="translate(-896, -2140)" fill="#7A8EAC">
            <path d="M907.831675,2173.09442 C911.513464,2169.41263 917.351932,2169.20197 921.280527,2172.46242 L917.902113,2175.84112 C915.607613,2174.51528 912.623014,2174.83381 910.660102,2176.79672 L903.480034,2183.97679 C901.136888,2186.31993 901.136888,2190.11892 903.480034,2192.46207 L910.660102,2199.64214 C913.003248,2201.98528 916.802238,2201.98528 919.145383,2199.64214 L926.325451,2192.46207 C928.332087,2190.45543 928.620269,2187.38109 927.189999,2185.06777 L930.53758,2181.71947 C933.798033,2185.64807 933.587366,2191.48654 929.905576,2195.16833 L921.97381,2203.10009 C918.068568,2207.00533 911.736918,2207.00533 907.831675,2203.10009 L899.899909,2195.16833 C895.994666,2191.26308 895.994666,2184.93143 899.899909,2181.02619 Z M936.915559,2162.52413 C937.89871,2161.54098 939.492714,2161.54098 940.475865,2162.52413 C941.459017,2163.50729 941.459017,2165.10129 940.475865,2166.08444 L924.810516,2181.74979 C923.827365,2182.73294 922.233361,2182.73294 921.250209,2181.74979 C920.267058,2180.76664 920.267058,2179.17264 921.250209,2178.18948 Z M937.02619,2143.89991 C940.931432,2139.99467 947.263082,2139.99467 951.168325,2143.89991 L959.100091,2151.83167 C963.005334,2155.73692 963.005334,2162.06857 959.100091,2165.97381 L951.168325,2173.90558 C947.486536,2177.58737 941.648068,2177.79803 937.719473,2174.53758 L941.097887,2171.15888 C943.392387,2172.48472 946.376986,2172.16619 948.339898,2170.20328 L955.519966,2163.02321 C957.863112,2160.68007 957.863112,2156.88108 955.519966,2154.53793 L948.339898,2147.35786 C945.996752,2145.01472 942.197762,2145.01472 939.854617,2147.35786 L932.674549,2154.53793 C930.667913,2156.54457 930.379731,2159.61891 931.810001,2161.93223 L928.46242,2165.28053 C925.201967,2161.35193 925.412634,2155.51346 929.094424,2151.83167 Z" id="Combined-Shape"></path>
        </g>
    </g>
</svg>