<?xml version="1.0" encoding="UTF-8"?>
<svg width="79px" height="70px" viewBox="0 0 79 70" version="1.1" xmlns="http://www.w3.org/2000/svg" xmlns:xlink="http://www.w3.org/1999/xlink">
    <title>Combined Shape</title>
    <g id="Page-1" stroke="none" stroke-width="1" fill="none" fill-rule="evenodd">
        <g id="Artboard" transform="translate(-1189, -2136)" fill="#7A8EAC">
            <path d="M1236.42627,2193.23044 L1238.55738,2195.36985 C1239.1454,2195.96016 1239.1454,2196.91482 1238.55738,2197.50513 C1237.97232,2198.09248 1237.02189,2198.09433 1236.43454,2197.50926 L1234.30342,2195.36985 C1233.71541,2194.77954 1233.71541,2193.82488 1234.30342,2193.23457 C1234.88849,2192.64722 1235.83892,2192.64537 1236.42627,2193.23044 Z M1245.45028,2192.22386 L1247.58139,2194.36327 C1248.16941,2194.95358 1248.16941,2195.90824 1247.58139,2196.49855 C1246.99633,2197.0859 1246.0459,2197.08775 1245.45855,2196.50268 L1243.32743,2194.36327 C1242.73942,2193.77296 1242.73942,2192.8183 1243.32743,2192.22799 C1243.9125,2191.64064 1244.86293,2191.63879 1245.45028,2192.22386 Z M1216.57312,2186.31063 C1220.5709,2186.31063 1224.11337,2187.55993 1227.20052,2190.05852 L1224.88822,2192.1771 C1222.37926,2190.15399 1219.48794,2189.14244 1216.21426,2189.14244 C1211.30373,2189.14244 1205.592,2193.53068 1200.36887,2193.53068 C1196.88679,2193.53068 1193.09716,2192.5241 1189,2190.51094 L1189,2187.49415 C1193.29463,2189.80696 1197.43113,2190.81255 1201.40948,2190.51094 C1207.37702,2190.05852 1210.57645,2186.31063 1216.57312,2186.31063 Z M1216.57312,2180.27115 C1220.5709,2180.27115 1224.11337,2181.52045 1227.20052,2184.01904 L1224.88822,2186.13763 C1222.37926,2184.11451 1219.48794,2183.10296 1216.21426,2183.10296 C1211.30373,2183.10296 1205.592,2187.4912 1200.36887,2187.4912 C1196.88679,2187.4912 1193.09716,2186.48462 1189,2184.47146 L1189,2181.45467 C1193.29463,2183.76748 1197.43113,2184.77307 1201.40948,2184.47146 C1207.37702,2184.01904 1210.57645,2180.27115 1216.57312,2180.27115 Z M1252.23173,2151.38552 C1262.74391,2151.79348 1268,2156.0536 1268,2164.16587 C1268,2172.06574 1263.72437,2177.05154 1255.1731,2179.12326 C1254.47593,2184.80999 1250.91396,2186.99749 1248.51358,2186.99749 L1230.10841,2186.99749 L1230.10841,2183.49953 L1248.51358,2183.49953 C1251.11751,2181.74359 1252.18326,2179.17643 1251.71081,2175.79806 C1251.23836,2172.4197 1248.58653,2170.73051 1243.75531,2170.73051 C1245.0346,2161.90098 1241.89465,2156.59137 1234.33547,2154.80168 C1226.7763,2153.01199 1220.21506,2155.76722 1214.65175,2163.06738 C1208.052,2162.9876 1203.83317,2164.47756 1201.99527,2167.53728 C1200.15737,2170.59699 1200.15737,2174.1781 1201.99527,2178.2806 L1199.23842,2178.86425 C1196.54963,2173.12868 1196.9865,2168.42483 1200.54904,2164.75272 C1201.32641,2163.95144 1202.13542,2163.25603 1202.97608,2162.66647 C1201.63028,2160.83295 1200.83569,2158.56625 1200.83569,2156.11323 C1200.83569,2149.99812 1205.7737,2145.04085 1211.86504,2145.04085 C1216.67993,2145.04085 1220.7742,2148.1382 1222.2787,2152.45642 C1223.76724,2146.73332 1227.97068,2143.36979 1234.88723,2142.3652 C1242.66571,2141.23543 1248.44721,2144.2422 1252.23173,2151.38552 Z M1216.57312,2175.25422 C1220.5709,2175.25422 1224.11337,2176.50352 1227.20052,2179.00211 L1224.88822,2181.1207 C1222.37926,2179.09759 1219.48794,2178.08603 1216.21426,2178.08603 C1211.30373,2178.08603 1205.592,2182.47427 1200.36887,2182.47427 C1196.88679,2182.47427 1193.09716,2181.46769 1189,2179.45453 L1189,2176.43774 C1193.29463,2178.75055 1197.43113,2179.75615 1201.40948,2179.45453 C1207.37702,2179.00211 1210.57645,2175.25422 1216.57312,2175.25422 Z M1235.39444,2145.04085 C1229.94252,2145.81049 1226.55218,2148.14442 1225.22345,2152.04265 C1228.47355,2151.14231 1231.88379,2151.16708 1235.45491,2152.11714 C1243.72594,2154.31756 1247.54584,2159.61201 1246.9146,2168.00051 C1251.79688,2169.07426 1254.54536,2171.51836 1255.16004,2175.33282 C1261.65476,2173.83079 1264.90191,2170.21653 1264.90191,2164.49149 C1264.90191,2158.02015 1260.18134,2154.78448 1250.74021,2154.78448 C1246.88501,2147.38874 1241.76975,2144.14087 1235.39444,2145.04085 Z M1199.16663,2162.17275 C1199.43843,2162.96516 1199.01938,2163.82434 1198.23103,2164.09685 L1195.39565,2165.07696 C1194.60974,2165.34862 1193.7524,2164.93175 1193.48074,2164.14584 C1193.20894,2163.35342 1193.62799,2162.49425 1194.41634,2162.22174 L1197.25172,2161.24163 C1198.03763,2160.96996 1198.89497,2161.38684 1199.16663,2162.17275 Z M1211.86504,2148.06059 C1207.43497,2148.06059 1203.8437,2151.66588 1203.8437,2156.11323 C1203.8437,2158.04039 1204.51804,2159.80943 1205.64276,2161.19552 C1207.96427,2160.23571 1210.49345,2159.97301 1213.23073,2160.40643 C1215.31097,2157.95067 1217.47837,2155.99631 1219.73296,2154.54335 C1219.00694,2150.84784 1215.76022,2148.06059 1211.86504,2148.06059 Z M1193.98696,2152.44112 L1196.96828,2152.75569 C1197.79772,2152.84321 1198.39939,2153.58621 1198.31254,2154.41572 C1198.22579,2155.24436 1197.48372,2155.84577 1196.65508,2155.75902 L1193.67375,2155.44445 C1192.84432,2155.35693 1192.24265,2154.61393 1192.32949,2153.78442 C1192.41625,2152.95578 1193.15832,2152.35437 1193.98696,2152.44112 Z M1198.06645,2142.91887 L1200.43903,2144.77975 C1201.09492,2145.29419 1201.21132,2146.24216 1200.69936,2146.89999 C1200.1899,2147.55462 1199.24622,2147.67229 1198.59159,2147.16283 L1196.21901,2145.30195 C1195.56312,2144.78751 1195.44673,2143.83954 1195.95868,2143.18171 C1196.46815,2142.52709 1197.41183,2142.40941 1198.06645,2142.91887 Z M1225.2015,2140.61264 C1225.87008,2141.11841 1226.00287,2142.06325 1225.50297,2142.72922 L1223.69077,2145.14348 C1223.19328,2145.80625 1222.25271,2145.94023 1221.58994,2145.44274 C1220.92136,2144.93697 1220.78857,2143.99214 1221.28847,2143.32616 L1223.10067,2140.9119 C1223.59816,2140.24914 1224.53873,2140.11515 1225.2015,2140.61264 Z M1207.14392,2138.02053 L1208.32405,2140.8116 C1208.648,2141.57774 1208.29092,2142.46155 1207.52569,2142.78764 C1206.76322,2143.11255 1205.88173,2142.75784 1205.55681,2141.99537 L1204.37668,2139.20431 C1204.05273,2138.43817 1204.40981,2137.55436 1205.17504,2137.22827 C1205.93751,2136.90336 1206.81901,2137.25807 1207.14392,2138.02053 Z M1215.84315,2136.01853 C1216.66563,2136.1493 1217.22551,2136.91992 1217.09601,2137.74077 L1216.62371,2140.73436 C1216.49441,2141.55394 1215.72519,2142.11352 1214.90561,2141.98422 C1214.08312,2141.85344 1213.52324,2141.08283 1213.65274,2140.26197 L1214.12504,2137.26838 C1214.25434,2136.4488 1215.02357,2135.88922 1215.84315,2136.01853 Z M1255.60274,2203.54461 C1255.01767,2204.13196 1254.06724,2204.13381 1253.47989,2203.54874 C1253.47851,2203.54737 1253.47713,2203.54599 1253.47576,2203.54461 L1251.34878,2201.40933 C1250.76076,2200.81902 1250.76076,2199.86436 1251.34878,2199.27405 C1251.93384,2198.6867 1252.88428,2198.68485 1253.47162,2199.26992 C1253.47301,2199.27129 1253.47438,2199.27267 1253.47576,2199.27405 L1255.60274,2201.40933 C1256.19076,2201.99964 1256.19076,2202.9543 1255.60274,2203.54461 Z M1245.57606,2205.55777 C1244.99099,2206.14512 1244.04056,2206.14697 1243.45321,2205.5619 C1243.45183,2205.56053 1243.45045,2205.55915 1243.44908,2205.55777 L1241.3221,2203.42249 C1240.73408,2202.83218 1240.73408,2201.87752 1241.3221,2201.28721 C1241.90717,2200.69986 1242.8576,2200.69801 1243.44495,2201.28308 C1243.44633,2201.28445 1243.4477,2201.28583 1243.44908,2201.28721 L1245.57606,2203.42249 C1246.16408,2204.0128 1246.16408,2204.96746 1245.57606,2205.55777 Z" id="Combined-Shape"></path>
        </g>
    </g>
</svg>