<?xml version="1.0" encoding="UTF-8"?>
<svg width="182px" height="225px" viewBox="0 0 182 225" version="1.1" xmlns="http://www.w3.org/2000/svg" xmlns:xlink="http://www.w3.org/1999/xlink">
    <title>Group 2 Copy 4</title>
    <g id="Page-1" stroke="none" stroke-width="1" fill="none" fill-rule="evenodd">
        <g id="Artboard" transform="translate(-50, -30)">
            <g id="Group-2-Copy-4" transform="translate(50, 30)">
                <path d="M59.8896321,176.608939 L59.8896321,171.72067 L50.1505017,171.72067 C50.1036789,171.476257 50.1036789,171.231844 50.1036789,170.98743 C50.1036789,165.365922 60.3578595,161.357542 60.3578595,150.603352 C60.3578595,145.128492 57.735786,142 52.6789298,142 C47.6220736,142 45,145.128492 45,150.603352 L45,153.927374 L49.8695652,153.927374 L49.8695652,150.261173 C49.8695652,147.817039 50.8996656,146.888268 52.5384615,146.888268 C54.1772575,146.888268 55.2073579,147.719274 55.2073579,150.798883 C55.2073579,160.673184 45,162.335196 45,172.405028 L45,176.608939 L59.8896321,176.608939 Z M71.1270903,177 C76.1839465,177 78.9464883,173.871508 78.9464883,168.396648 L78.9464883,150.603352 C78.9464883,145.128492 76.1839465,142 71.1270903,142 C66.0702341,142 63.3076923,145.128492 63.3076923,150.603352 L63.3076923,168.396648 C63.3076923,173.871508 66.0702341,177 71.1270903,177 Z M71.1270903,172.111732 C69.4882943,172.111732 68.458194,171.182961 68.458194,168.738827 L68.458194,150.261173 C68.458194,147.817039 69.4882943,146.888268 71.1270903,146.888268 C72.7658863,146.888268 73.7959866,147.817039 73.7959866,150.261173 L73.7959866,168.738827 C73.7959866,171.182961 72.7658863,172.111732 71.1270903,172.111732 Z M89.2474916,176.657821 C94.3979933,176.657821 96.5518395,174.213687 96.7391304,167.956704 L97.3010033,147.27933 L101.795987,147.27933 L101.795987,176.608939 L107.040134,176.608939 L107.040134,142.391061 L92.4782609,142.391061 L91.6354515,168.25 C91.541806,171.427374 90.7926421,171.769553 88.451505,171.769553 L88.451505,176.657821 L89.2474916,176.657821 Z M125.207358,176.608939 L125.207358,171.72067 L116.311037,171.72067 L116.311037,161.699721 L123.381271,161.699721 L123.381271,156.811453 L116.311037,156.811453 L116.311037,147.27933 L125.207358,147.27933 L125.207358,142.391061 L111.160535,142.391061 L111.160535,176.608939 L125.207358,176.608939 Z M137.615385,176.608939 L137.615385,147.27933 L143,147.27933 L143,142.391061 L127.080268,142.391061 L127.080268,147.27933 L132.464883,147.27933 L132.464883,176.608939 L137.615385,176.608939 Z" id="20лет" fill="#FF0000" fill-rule="nonzero"></path>
                <path d="M63.3716547,45.9765108 C65.7764795,45.9765108 66.7821334,44.8369594 66.8695816,41.9197078 L67.1319261,32.2791028 L69.2306822,32.2791028 L69.2306822,45.9537198 L71.6792311,45.9537198 L71.6792311,30 L64.8801357,30 L64.4866189,42.0564539 C64.4428948,43.5378708 64.0931021,43.697408 63,43.697408 L63,45.9765108 L63.3716547,45.9765108 Z M78.9374293,41.8969167 L81.5171504,30 L79.0030155,30 L77.9099133,35.4698468 L77.3415002,39.1847844 L76.5981907,35.4470558 L75.2864681,30 L72.9035055,30 L76.226536,42.3071553 L76.204674,42.4439014 C76.0079156,43.6062439 75.3083302,43.8341542 74.0840558,43.74299 L74.0840558,45.9765108 C77.4289484,46.2044211 78.3690162,44.7685863 78.9374293,41.8969167 Z M89.9121749,45.9537198 L89.9121749,30 L87.5073502,30 L87.5073502,36.472652 C87.5073502,37.5438304 87.0263852,38.1136061 86.2612137,38.1136061 C85.4960422,38.1136061 84.862043,37.6122034 84.862043,36.5410251 L84.862043,30 L82.4572182,30 L82.4572182,36.7461444 C82.4572182,38.9340831 83.4847343,40.4154999 85.4523181,40.4154999 C86.1081794,40.4154999 86.9826611,40.1192165 87.5073502,39.5266498 L87.5073502,45.9537198 L89.9121749,45.9537198 Z M103.138711,45.9537198 L103.138711,30 L100.733886,30 L100.733886,43.674617 L98.6569921,43.674617 L98.6569921,30 L96.2521674,30 L96.2521674,43.674617 L94.1752733,43.674617 L94.1752733,30 L91.7704485,30 L91.7704485,45.9537198 L103.138711,45.9537198 Z M106.54919,45.9537198 L106.964568,43.0592592 L109.915944,43.0592592 L110.331323,45.9537198 L112.75801,45.9537198 L110.309461,30 L106.789672,30 L104.341123,45.9537198 L106.54919,45.9537198 Z M109.588014,40.8941115 L107.270637,40.8941115 L108.429325,32.8260875 L109.588014,40.8941115 Z M115.97173,45.9537198 C116.102902,45.5434813 116.190351,45.29278 116.190351,43.9936913 L116.190351,41.4866782 C116.190351,40.0052614 116.671315,39.4582767 117.764418,39.4582767 L118.595175,39.4582767 L118.595175,45.9537198 L121,45.9537198 L121,30 L117.370901,30 C114.878628,30 113.807388,31.2079245 113.807388,33.6693555 L113.807388,34.9228621 C113.807388,36.5638161 114.310215,37.6349945 115.381455,38.1591881 C114.179043,38.6833818 113.785526,39.8913063 113.785526,41.5550513 L113.785526,44.0164824 C113.785526,44.7913773 113.763664,45.361153 113.523181,45.9537198 L115.97173,45.9537198 Z M118.595175,37.1791739 L117.655107,37.1791739 C116.758764,37.1791739 116.212213,36.7689354 116.212213,35.4926378 L116.212213,33.9200569 C116.212213,32.7805054 116.583867,32.2791028 117.436487,32.2791028 L118.595175,32.2791028 L118.595175,37.1791739 Z" id="Лучшая" fill="#FF0000" fill-rule="nonzero"></path>
                <path d="M91.5337495,0 L182,26.9486482 L182,105.733633 C180.304272,134.823171 171.334826,159.834238 155.091662,180.766834 C138.848498,201.699431 117.662527,216.44382 91.5337495,225 C64.4716259,216.339706 43.0042608,201.595317 27.1316542,180.766834 C11.2590475,159.938352 2.21516279,134.927284 0,105.733633 L0,26.9486482 L91.5337495,0 Z M91.8642831,13.1392337 L13.5069306,36.2142152 L13.5069306,103.674448 C15.4032179,132.83382 23.1452242,156.330778 36.7329494,174.165322 C50.3206746,191.999866 68.6977858,204.624859 91.8642831,212.040301 C114.231791,204.714008 132.368015,192.089015 146.272955,174.165322 C160.177895,156.24163 167.856178,132.744672 169.307804,103.674448 L169.307804,36.2142152 L91.8642831,13.1392337 Z" id="Combined-Shape-Copy" fill="#B41717"></path>
                <path d="M39.9178187,88.8609539 C44.9777266,88.8609539 47.6013825,85.8342765 47.6013825,80.5375909 L47.6013825,77.93654 C47.6013825,74.5788197 46.5706605,72.1196443 43.9938556,70.9846403 C46.4769585,69.9442199 47.6013825,67.7215036 47.6013825,64.174616 L47.6013825,63.323363 C47.6013825,58.0266774 44.9777266,55 39.9178187,55 C34.8579109,55 32.327957,57.9320938 32.327957,63.2287793 L32.327957,65.6879547 L37.0599078,65.6879547 L37.0599078,62.9923201 C37.0599078,60.6277284 38.1374808,59.7291835 39.7772657,59.7291835 C41.4170507,59.7291835 42.4477727,60.5331447 42.4477727,63.5125303 L42.4477727,65.3569119 C42.4477727,68.0052546 41.2764977,68.8565077 39.3556068,68.8565077 L37.8095238,68.8565077 L37.8095238,73.5856912 L39.0745008,73.5856912 C41.4170507,73.5856912 42.4477727,74.7206952 42.4477727,77.7946645 L42.4477727,80.3957154 C42.4477727,83.3278092 41.4170507,84.1317704 39.7772657,84.1317704 C38.1374808,84.1317704 37.1067588,83.2332255 37.1067588,80.8686338 L37.1067588,76.8961196 L32.234255,76.8961196 L32.234255,80.5375909 C32.234255,85.8342765 34.8579109,88.8609539 39.9178187,88.8609539 Z M54.6290323,88.4826192 L55.5192012,82.4765562 L61.844086,82.4765562 L62.734255,88.4826192 L67.9347158,88.4826192 L62.687404,55.3783347 L55.1443932,55.3783347 L49.8970814,88.4826192 L54.6290323,88.4826192 Z M61.141321,77.9838319 L56.1751152,77.9838319 L58.6582181,61.2425222 L61.141321,77.9838319 Z M97.1697389,92.9280517 L97.1697389,83.8480194 L94.8740399,83.8480194 L94.8740399,55.3783347 L89.7204301,55.3783347 L89.7204301,83.7534357 L85.2695853,83.7534357 L85.2695853,55.3783347 L80.1159754,55.3783347 L80.1159754,83.7534357 L75.6651306,83.7534357 L75.6651306,55.3783347 L70.5115207,55.3783347 L70.5115207,88.4826192 L92.156682,88.4826192 L92.156682,92.9280517 L97.1697389,92.9280517 Z M105.462366,88.4826192 L109.772657,73.3019402 L111.880952,65.1677445 L111.880952,88.4826192 L116.519201,88.4826192 L116.519201,55.3783347 L110.85023,55.3783347 L106.633641,69.045675 L104.759601,76.3286176 L104.759601,55.3783347 L100.168203,55.3783347 L100.168203,88.4826192 L105.462366,88.4826192 Z M129.403226,88.4826192 L129.403226,60.1075182 L134.791091,60.1075182 L134.791091,55.3783347 L118.861751,55.3783347 L118.861751,60.1075182 L124.249616,60.1075182 L124.249616,88.4826192 L129.403226,88.4826192 Z M140.600614,88.4826192 L141.490783,82.4765562 L147.815668,82.4765562 L148.705837,88.4826192 L153.906298,88.4826192 L148.658986,55.3783347 L141.115975,55.3783347 L135.868664,88.4826192 L140.600614,88.4826192 Z M147.112903,77.9838319 L142.146697,77.9838319 L144.6298,61.2425222 L147.112903,77.9838319 Z M39.8241167,133 C44.8840246,133 47.6482335,129.973323 47.6482335,124.676637 L47.6482335,107.462409 C47.6482335,102.165724 44.8840246,99.1390461 39.8241167,99.1390461 C34.7642089,99.1390461 32,102.165724 32,107.462409 L32,124.676637 C32,129.973323 34.7642089,133 39.8241167,133 Z M39.8241167,128.270816 C38.1843318,128.270816 37.1536098,127.372272 37.1536098,125.00768 L37.1536098,107.131366 C37.1536098,104.766774 38.1843318,103.86823 39.8241167,103.86823 C41.4639017,103.86823 42.4946237,104.766774 42.4946237,107.131366 L42.4946237,125.00768 C42.4946237,127.372272 41.4639017,128.270816 39.8241167,128.270816 Z M56.3156682,132.621665 L56.3156682,122.453921 L57.9086022,119.427243 L62.921659,132.621665 L68.2158218,132.621665 L61.047619,114.272433 L68.2158218,99.5173808 L63.062212,99.5173808 L56.3156682,113.94139 L56.3156682,99.5173808 L51.1620584,99.5173808 L51.1620584,132.621665 L56.3156682,132.621665 Z M78.1482335,133 C83.2081413,133 85.9723502,129.973323 85.9723502,124.676637 L85.9723502,107.462409 C85.9723502,102.165724 83.2081413,99.1390461 78.1482335,99.1390461 C73.0883257,99.1390461 70.3241167,102.165724 70.3241167,107.462409 L70.3241167,124.676637 C70.3241167,129.973323 73.0883257,133 78.1482335,133 Z M78.1482335,128.270816 C76.5084485,128.270816 75.4777266,127.372272 75.4777266,125.00768 L75.4777266,107.131366 C75.4777266,104.766774 76.5084485,103.86823 78.1482335,103.86823 C79.7880184,103.86823 80.8187404,104.766774 80.8187404,107.131366 L80.8187404,125.00768 C80.8187404,127.372272 79.7880184,128.270816 78.1482335,128.270816 Z M94.6397849,132.621665 L94.6397849,118.434115 L100.49616,118.434115 L100.49616,132.621665 L105.743472,132.621665 L105.743472,99.5173808 L100.49616,99.5173808 L100.49616,113.704931 L94.6397849,113.704931 L94.6397849,99.5173808 L89.4861751,99.5173808 L89.4861751,132.621665 L94.6397849,132.621665 Z M122.281874,132.621665 L122.281874,118.434115 L128.138249,118.434115 L128.138249,132.621665 L133.385561,132.621665 L133.385561,99.5173808 L128.138249,99.5173808 L128.138249,113.704931 L122.281874,113.704931 L122.281874,99.5173808 L117.128264,99.5173808 L117.128264,132.621665 L122.281874,132.621665 Z M140.694316,132.621665 L141.584485,126.615602 L147.90937,126.615602 L148.799539,132.621665 L154,132.621665 L148.752688,99.5173808 L141.209677,99.5173808 L135.962366,132.621665 L140.694316,132.621665 Z M147.206605,122.122878 L142.240399,122.122878 L144.723502,105.381568 L147.206605,122.122878 Z" id="Защитаоконна" fill="#000000" fill-rule="nonzero"></path>
            </g>
        </g>
    </g>
</svg>