<?xml version="1.0" encoding="UTF-8"?>
<svg width="153px" height="44px" viewBox="0 0 153 44" version="1.1" xmlns="http://www.w3.org/2000/svg" xmlns:xlink="http://www.w3.org/1999/xlink">
    <title>Group 4</title>
    <g id="Page-1" stroke="none" stroke-width="1" fill="none" fill-rule="evenodd">
        <g id="Artboard-Copy-2" transform="translate(-647, -2193)">
            <g id="Group-2" transform="translate(647, 2193.085)">
                <g id="Group-4" transform="translate(0, -0)">
                    <path d="M125.069132,43.1018145 L127.423909,37.0154285 L138.21307,37.0154285 L140.567847,43.1018145 L150.75761,43.1018145 L139.66875,16.7697417 C139.04081,15.276323 138.177391,14.3041919 137.078495,13.8533484 C135.979599,13.402505 134.559597,13.1770833 132.818489,13.1770833 C130.677783,13.1770833 129.136474,13.4659049 128.194563,14.043548 C127.252652,14.6211911 126.510541,15.5299224 125.968228,16.7697417 L125.968228,16.7697417 L114.879369,43.1018145 L125.069132,43.1018145 Z M136.200806,30.5063768 L129.436173,30.5063768 L132.347534,22.3489289 C132.51879,21.9262632 132.675776,21.7149304 132.818489,21.7149304 C132.961203,21.7149304 133.118188,21.9262632 133.289445,22.3489289 L133.289445,22.3489289 L136.200806,30.5063768 Z" id="А" fill="#000000" fill-rule="nonzero"></path>
                    <path d="M23.3411793,43.2164502 L23.3411793,36.679326 L16.0947347,36.679326 C13.1707308,36.679326 11.231989,36.2660595 10.2785095,35.4395266 C9.32502995,34.6129937 8.84829018,32.8221723 8.84829018,30.0670625 C8.84829018,27.3119527 9.32502995,25.5211313 10.2785095,24.6945983 C11.231989,23.8680654 13.1707308,23.4547989 16.0947347,23.4547989 L16.0947347,23.4547989 L22.9597874,23.4547989 L22.9597874,16.9176747 L11.6705896,16.9176747 C7.37357515,16.9176747 4.35422326,17.9508409 2.61253395,20.0171733 C0.870844651,22.0835056 0,25.4334687 0,30.0670625 C0,34.7006562 0.870844651,38.0506193 2.61253395,40.1169517 C4.35422326,42.183284 7.37357515,43.2164502 11.6705896,43.2164502 L11.6705896,43.2164502 L23.3411793,43.2164502 Z M39.6647491,43.2164502 L39.6647491,28.5642753 L47.2163071,28.5642753 L47.2163071,23.3045202 L24.6379114,23.3045202 L24.6379114,28.5642753 L32.1894694,28.5642753 L32.1894694,43.2164502 L39.6647491,43.2164502 Z M53.2422978,43.4418683 C54.132212,43.4418683 54.8377869,43.3354209 55.3590224,43.122526 C55.8802579,42.9096312 56.433276,42.4400102 57.0180768,41.713663 L57.0180768,41.713663 L64.188243,32.8847884 C64.5442087,32.4840452 64.7730438,32.2836735 64.8747482,32.2836735 C65.0781572,32.2836735 65.1798617,32.4840452 65.1798617,32.8847884 L65.1798617,32.8847884 L64.7984699,43.2164502 L72.2737495,43.2164502 L72.2737495,27.0614881 C72.2737495,26.6607449 72.2419669,26.2975713 72.1784016,25.9719674 C72.1148362,25.6463635 71.9622795,25.2330971 71.7207314,24.732168 C71.4791832,24.231239 71.0342261,23.8304957 70.38586,23.5299383 C69.7374939,23.2293808 68.9175015,23.0791021 67.9258828,23.0791021 C67.2139514,23.0791021 66.6037245,23.1730263 66.0952021,23.3608747 C65.5866796,23.5487231 65.2624966,23.7052634 65.1226529,23.8304957 C64.9828093,23.955728 64.7476176,24.2061925 64.4170781,24.5818893 L64.4170781,24.5818893 L57.0943551,33.636182 C56.7892417,34.0118788 56.5604066,34.1997272 56.4078499,34.1997272 C56.1790148,34.1997272 56.0645972,34.0118788 56.0645972,33.636182 L56.0645972,33.636182 L56.4459891,23.3045202 L48.9707094,23.3045202 L48.9707094,39.6849004 C48.9707094,42.1895456 50.3945722,43.4418683 53.2422978,43.4418683 Z M88.2159275,43.2164502 C90.4534262,43.2164502 92.1506198,42.847015 93.3075083,42.1081447 C94.4643968,41.3692743 95.042841,39.885272 95.042841,37.6561377 C95.042841,34.8759814 93.6444044,33.3481478 90.847531,33.0726368 L90.847531,33.0726368 L90.847531,32.9223581 C92.2968199,32.7219865 93.3329344,32.2961968 93.9558744,31.644989 C94.5788143,30.9937812 94.8902843,29.929307 94.8902843,28.4515663 C94.8902843,27.4998011 94.7695102,26.6983146 94.5279621,26.0471068 C94.2864139,25.395899 93.9813005,24.8887083 93.6126217,24.5255348 C93.243943,24.1623612 92.7354205,23.8868502 92.0870544,23.6990018 C91.4386884,23.5111534 90.834818,23.3984444 90.2754433,23.3608747 C89.7160686,23.323305 88.9787111,23.3045202 88.0633708,23.3045202 L75.096049,23.3045202 L75.096049,28.3388572 L85.3554889,28.3388572 C85.8640113,28.3388572 86.23269,28.3513804 86.4615251,28.3764269 C86.6903602,28.4014734 86.9191953,28.5079208 87.1480304,28.6957692 C87.3768655,28.8836176 87.491283,29.1653902 87.491283,29.541087 C87.491283,29.9167838 87.3768655,30.1985563 87.1480304,30.3864047 C86.9191953,30.5742531 86.6903602,30.6807006 86.4615251,30.705747 C86.23269,30.7307935 85.8640113,30.7433167 85.3554889,30.7433167 L75.324884,30.7433167 L75.324884,35.3268176 L85.3173497,35.3268176 C86.0547072,35.3268176 86.6013688,35.3956953 86.9573345,35.5334508 C87.3133002,35.6712063 87.491283,36.0281182 87.491283,36.6041867 C87.491283,37.0049299 87.3768655,37.3054873 87.1480304,37.505859 C86.9191953,37.7062306 86.6840037,37.8189396 86.4424555,37.8439861 C86.2009074,37.8690325 85.8258721,37.8815558 85.3173497,37.8815558 L74.7909355,37.8815558 L74.7909355,43.2164502 L88.2159275,43.2164502 Z" id="Стиз-Copy-2" fill="#000000" fill-rule="nonzero"></path>
                    <path d="M152.913754,-7.31138755e-15 L152.913754,14.7759802 L146.186584,19.7231183 L146.186489,6.631 L132.818489,6.63104839 L137.965287,0 L152.913754,-7.31138755e-15 Z" id="Combined-Shape" fill="#DD4433"></path>
                </g>
            </g>
        </g>
    </g>
</svg>