<?xml version="1.0" encoding="UTF-8"?>
<svg width="146px" height="39px" viewBox="0 0 146 39" version="1.1" xmlns="http://www.w3.org/2000/svg" xmlns:xlink="http://www.w3.org/1999/xlink">
    <title>Group</title>
    <g id="Page-1" stroke="none" stroke-width="1" fill="none" fill-rule="evenodd">
        <g id="Artboard-Copy-2" transform="translate(-918, -2211)">
            <g id="Group" transform="translate(918, 2211)">
                <g id="Group-2" fill="#000000" fill-rule="nonzero">
                    <path d="M23.3589872,26.5739851 L23.3589872,19.9684517 L16.107014,19.9684517 C13.1807793,19.9684517 11.2405584,19.5508605 10.2863514,18.7156781 C9.33214439,17.8804957 8.85504089,16.0709338 8.85504089,13.2869925 C8.85504089,10.5030513 9.33214439,8.69348941 10.2863514,7.85830702 C11.2405584,7.02312463 13.1807793,6.60553344 16.107014,6.60553344 L16.107014,6.60553344 L22.9773044,6.60553344 L22.9773044,0 L11.6794936,0 C7.37920075,0 4.35754527,1.04397799 2.61452716,3.13193396 C0.871509054,5.21988993 0,8.60490946 0,13.2869925 C0,17.9690756 0.871509054,21.3540952 2.61452716,23.4420511 C4.35754527,25.5300071 7.37920075,26.5739851 11.6794936,26.5739851 L11.6794936,26.5739851 L23.3589872,26.5739851 Z M39.6950109,26.5739851 L39.6950109,11.7684791 L47.2523303,11.7684791 L47.2523303,6.4536821 L24.6567087,6.4536821 L24.6567087,11.7684791 L32.2140281,11.7684791 L32.2140281,26.5739851 L39.6950109,26.5739851 Z M53.2829185,26.8017621 C54.1735117,26.8017621 54.8796249,26.6942007 55.401258,26.479078 C55.9228912,26.2639553 56.4763312,25.7894198 57.0615782,25.0554717 L57.0615782,25.0554717 L64.2372148,16.1342052 C64.593452,15.7292683 64.8224617,15.5267999 64.9242438,15.5267999 C65.127808,15.5267999 65.22959,15.7292683 65.22959,16.1342052 L65.22959,16.1342052 L64.8479072,26.5739851 L72.3288901,26.5739851 L72.3288901,10.2499657 C72.3288901,9.84502877 72.2970832,9.47805469 72.2334694,9.14904344 C72.1698556,8.8200322 72.0171824,8.402441 71.77545,7.89626986 C71.5337176,7.39009871 71.088421,6.9851618 70.4395602,6.68145911 C69.7906995,6.37775642 68.9700814,6.22590508 67.9777062,6.22590508 C67.2652316,6.22590508 66.6545391,6.32081217 66.1456287,6.51062635 C65.6367184,6.70044053 65.312288,6.85861901 65.1723376,6.9851618 C65.0323873,7.11170458 64.7970162,7.36479016 64.4662244,7.74441851 L64.4662244,7.74441851 L57.1379147,16.893462 C56.8325685,17.2730903 56.6035588,17.4629045 56.4508857,17.4629045 C56.221876,17.4629045 56.1073712,17.2730903 56.1073712,16.893462 L56.1073712,16.893462 L56.489054,6.4536821 L49.0080712,6.4536821 L49.0080712,23.0054785 C49.0080712,25.5363343 50.4330203,26.8017621 53.2829185,26.8017621 Z M88.283231,26.5739851 C90.5224367,26.5739851 92.2209252,26.2006839 93.3786963,25.4540814 C94.5364675,24.707479 95.1153531,23.207947 95.1153531,20.9554854 C95.1153531,18.1462355 93.7158495,16.6024135 90.9168423,16.3240194 L90.9168423,16.3240194 L90.9168423,16.1721681 C92.3672369,15.9696996 93.4041418,15.5394541 94.0275571,14.8814317 C94.6509723,14.2234092 94.9626799,13.1477955 94.9626799,11.6545906 C94.9626799,10.6928654 94.8418137,9.8829916 94.6000813,9.22496911 C94.3583488,8.56694662 94.0530026,8.05444834 93.6840426,7.68747426 C93.3150825,7.32050018 92.8061721,7.04210605 92.1573114,6.85229187 C91.5084506,6.66247769 90.9041195,6.54858919 90.3443181,6.51062635 C89.7845167,6.47266351 89.0465966,6.4536821 88.1305579,6.4536821 L75.1533428,6.4536821 L75.1533428,11.5407021 L85.42061,11.5407021 C85.9295204,11.5407021 86.2984804,11.5533564 86.5274901,11.5786649 C86.7564998,11.6039735 86.9855095,11.7115349 87.2145192,11.901349 C87.4435288,12.0911632 87.5580337,12.3758845 87.5580337,12.7555128 C87.5580337,13.1351412 87.4435288,13.4198625 87.2145192,13.6096767 C86.9855095,13.7994908 86.7564998,13.9070522 86.5274901,13.9323608 C86.2984804,13.9576693 85.9295204,13.9703236 85.42061,13.9703236 L75.3823524,13.9703236 L75.3823524,18.6017896 L85.3824417,18.6017896 C86.1203618,18.6017896 86.6674405,18.6713881 87.0236778,18.8105852 C87.379915,18.9497822 87.5580337,19.3104292 87.5580337,19.892526 C87.5580337,20.2974629 87.4435288,20.6011656 87.2145192,20.803634 C86.9855095,21.0061025 86.7501384,21.119991 86.508406,21.1452996 C86.2666735,21.1706081 85.8913521,21.1832624 85.3824417,21.1832624 L74.8479965,21.1832624 L74.8479965,26.5739851 L88.283231,26.5739851 Z" id="Стиз-Copy-2"></path>
                </g>
                <g id="Group-7" transform="translate(107.199, 0)">
                    <path d="M30.8660119,27.4889868 C33.6915671,27.4889868 35.640677,26.8803021 36.7133415,25.6629327 C37.786006,24.4455632 38.3223383,22.4886092 38.3223383,19.7920705 C38.3223383,17.9071114 37.9953064,16.4737571 37.3412427,15.4920076 C36.687179,14.510258 35.4313766,13.8492133 33.5738357,13.5088735 L33.5738357,13.3517936 C36.3209033,12.8281938 37.6944371,10.9432347 37.6944371,7.6969163 C37.6944371,4.94801762 37.1123204,2.97797357 35.948087,1.78678414 C34.7838536,0.595594714 32.828203,0 30.0811354,0 L15.3647018,0 L11.0478813,0 L11.0478813,27.4889868 L15.3647018,27.4889868 L30.8660119,27.4889868 Z M19.9169853,10.5636249 L19.9169853,6.67589679 L21.4867382,6.67589679 L26.4707037,6.67589679 C27.3079053,6.67589679 27.9227252,6.81334172 28.3151634,7.08823159 C28.7076016,7.36312146 28.9038207,7.86708622 28.9038207,8.60012587 C28.9038207,9.3593455 28.7141423,9.87640025 28.3347853,10.1512901 C27.9554284,10.42618 27.3471491,10.5636249 26.5099475,10.5636249 L19.9169853,10.5636249 Z M21.8791764,20.81309 L19.9169853,20.81309 L19.9169853,16.611202 L26.8631419,16.611202 C28.5898702,16.611202 29.4532343,17.3049717 29.4532343,18.692511 C29.4532343,20.1062303 28.5898702,20.81309 26.8631419,20.81309 L21.8791764,20.81309 Z" id="В" fill="#000000" fill-rule="nonzero"></path>
                    <path d="M20.8874006,18.7268722 L20.8874006,33.9149033 L13.8225445,39 L13.822,25.6858722 L-2.84217094e-14,25.6863042 L5.33323294,18.8781642 L13.822,18.8778722 L13.8225445,18.7268722 L20.8874006,18.7268722 Z" id="Combined-Shape-Copy-3" fill="#459DD4" transform="translate(10.4437, 28.8634) scale(-1, -1) translate(-10.4437, -28.8634)"></path>
                </g>
            </g>
        </g>
    </g>
</svg>