<?xml version="1.0" encoding="UTF-8"?>
<svg width="142px" height="31px" viewBox="0 0 142 31" version="1.1" xmlns="http://www.w3.org/2000/svg" xmlns:xlink="http://www.w3.org/1999/xlink">
    <title>Group</title>
    <g id="Page-1" stroke="none" stroke-width="1" fill="none" fill-rule="evenodd">
        <g id="Artboard-Copy-2" transform="translate(-1168, -2211)">
            <g id="Group" transform="translate(1168, 2211)">
                <g id="Group-2" transform="translate(0, 0.7045)" fill="#000000" fill-rule="nonzero">
                    <path d="M23.3760706,27.2437548 L23.3760706,20.4717358 L16.1187938,20.4717358 C13.1904189,20.4717358 11.2487791,20.0436196 10.2938742,19.1873873 C9.33896937,18.331155 8.86151695,16.4759851 8.86151695,13.6218774 C8.86151695,10.7677698 9.33896937,8.91259979 10.2938742,8.0563675 C11.2487791,7.2001352 13.1904189,6.77201906 16.1187938,6.77201906 L16.1187938,6.77201906 L22.9941086,6.77201906 L22.9941086,0 L11.6880353,0 C7.38459746,0 4.36073212,1.07029037 2.61643927,3.2108711 C0.872146424,5.35145184 0,8.82178728 0,13.6218774 C0,18.4219676 0.872146424,21.892303 2.61643927,24.0328837 C4.36073212,26.1734645 7.38459746,27.2437548 11.6880353,27.2437548 L11.6880353,27.2437548 L23.3760706,27.2437548 Z M39.7240415,27.2437548 L39.7240415,12.0650914 L47.2868879,12.0650914 L47.2868879,6.61634046 L24.6747412,6.61634046 L24.6747412,12.0650914 L32.2375875,12.0650914 L32.2375875,27.2437548 L39.7240415,27.2437548 Z M53.3218865,27.4772727 C54.213131,27.4772727 54.9197606,27.3670004 55.4417752,27.1464557 C55.9637899,26.925911 56.5176347,26.4394154 57.1033097,25.6869688 L57.1033097,25.6869688 L64.2841941,16.5408511 C64.6406919,16.1257082 64.8698691,15.9181367 64.9717256,15.9181367 C65.1754386,15.9181367 65.2772951,16.1257082 65.2772951,16.5408511 L65.2772951,16.5408511 L64.8953332,27.2437548 L72.3817872,27.2437548 L72.3817872,10.5083054 C72.3817872,10.0931625 72.349957,9.71693922 72.2862967,9.37963559 C72.2226364,9.04233196 72.0698516,8.61421581 71.8279424,8.09528715 C71.5860331,7.57635849 71.1404109,7.16121555 70.4910756,6.84985836 C69.8417403,6.53850116 69.0205221,6.38282256 68.0274211,6.38282256 C67.3144255,6.38282256 66.7032864,6.48012168 66.1940038,6.67471993 C65.6847212,6.86931818 65.3600536,7.03148339 65.2200008,7.16121555 C65.0799481,7.29094772 64.8444049,7.55041205 64.5133713,7.93960855 L64.5133713,7.93960855 L57.1797021,17.3192441 C56.8741325,17.7084406 56.6449553,17.9030389 56.4921706,17.9030389 C56.2629934,17.9030389 56.1484048,17.7084406 56.1484048,17.3192441 L56.1484048,17.3192441 L56.5303668,6.61634046 L49.0439128,6.61634046 L49.0439128,23.5853078 C49.0439128,26.1799511 50.469904,27.4772727 53.3218865,27.4772727 Z M88.3477962,27.2437548 C90.5886395,27.2437548 92.2883701,26.8610449 93.446988,26.0956252 C94.6056059,25.3302054 95.1849148,23.7928792 95.1849148,21.4836467 C95.1849148,18.6035926 93.7843877,17.0208602 90.9833335,16.7354494 L90.9833335,16.7354494 L90.9833335,16.5797708 C92.4347889,16.3721993 93.4724522,15.93111 94.0963233,15.2565027 C94.7201945,14.5818954 95.0321301,13.479172 95.0321301,11.9483325 C95.0321301,10.962368 94.9111755,10.1320822 94.6692662,9.45747489 C94.427357,8.78286763 94.1217874,8.25745236 93.7525576,7.88122908 C93.3833277,7.50500579 92.8740451,7.21959503 92.2247098,7.02499678 C91.5753745,6.83039853 90.9706015,6.71363958 90.4103906,6.67471993 C89.8501798,6.63580028 89.11172,6.61634046 88.1950114,6.61634046 L75.2083055,6.61634046 L75.2083055,11.8315735 L85.4830816,11.8315735 C85.9923642,11.8315735 86.3615941,11.8445467 86.5907712,11.8704932 C86.8199484,11.8964396 87.0491256,12.0067119 87.2783027,12.2013102 C87.5074799,12.3959084 87.6220685,12.6878058 87.6220685,13.0770023 C87.6220685,13.4661988 87.5074799,13.7580962 87.2783027,13.9526944 C87.0491256,14.1472927 86.8199484,14.257565 86.5907712,14.2835115 C86.3615941,14.3094579 85.9923642,14.3224311 85.4830816,14.3224311 L75.4374827,14.3224311 L75.4374827,19.0706284 L85.4448854,19.0706284 C86.1833452,19.0706284 86.730824,19.1419811 87.0873218,19.2846865 C87.4438196,19.4273918 87.6220685,19.7971285 87.6220685,20.3938965 C87.6220685,20.8090394 87.5074799,21.1203966 87.2783027,21.3279681 C87.0491256,21.5355395 86.8135824,21.6522985 86.5716731,21.6782449 C86.3297639,21.7041913 85.954168,21.7171646 85.4448854,21.7171646 L74.902736,21.7171646 L74.902736,27.2437548 L88.3477962,27.2437548 Z" id="Стиз-Copy-2"></path>
                </g>
                <path d="M115.23195,31 L115.23195,27.653618 C115.23195,26.6484777 115.676283,26.109134 116.564949,26.0355872 L116.564949,26.0355872 L132.849146,26.0355872 C133.761829,26.109134 134.218171,26.6484777 134.218171,27.653618 L134.218171,27.653618 L134.218171,31 L142,31 L142,23.6820878 C142,22.4072756 141.657744,21.414393 140.973231,20.7034401 C140.288718,19.9924871 139.309985,19.6370107 138.037032,19.6370107 L138.037032,19.6370107 L137.676762,19.6370107 L130.543419,2.90510083 C130.303239,2.36575722 130.039041,1.91221827 129.750825,1.54448399 C129.462609,1.1767497 128.886178,0.827402135 128.02153,0.496441281 C127.156882,0.165480427 126.064064,0 124.743074,0 C123.422085,0 122.329266,0.165480427 121.464619,0.496441281 C120.599971,0.827402135 120.023539,1.1767497 119.735323,1.54448399 C119.447108,1.91221827 119.18291,2.36575722 118.94273,2.90510083 L118.94273,2.90510083 L111.77336,19.6370107 L111.41309,19.6370107 C110.164155,19.6370107 109.191426,19.9924871 108.494904,20.7034401 C107.798383,21.414393 107.450122,22.4072756 107.450122,23.6820878 L107.450122,23.6820878 L107.450122,31 L115.23195,31 Z M129.907543,19.5511364 L119.542579,19.5511364 L124.253926,8.05664704 C124.447212,7.6173672 124.604257,7.39772727 124.725061,7.39772727 C124.845865,7.39772727 125.002909,7.6173672 125.196196,8.05664704 L125.196196,8.05664704 L129.907543,19.5511364 Z" id="Д" fill="#000000" fill-rule="nonzero"></path>
                <polygon id="Rectangle" fill="#693D89" points="111.835116 2.11363636 116.43309 2.11363636 109.456854 17.6136364 104.858881 17.6136364"></polygon>
            </g>
        </g>
    </g>
</svg>